<svg width="100" height="24" viewBox="0 0 100 24" fill="none" xmlns="http://www.w3.org/2000/svg">
<path d="M30.8401 1.94L25.3501 23H19.1401L15.7801 9.14L12.3001 23H6.09006L0.750061 1.94H6.24006L9.27006 17.27L13.0201 1.94H18.6601L22.2601 17.27L25.3201 1.94H30.8401ZM32.3928 14.6C32.3928 12.88 32.7128 11.37 33.3528 10.07C34.0128 8.77 34.9028 7.77 36.0228 7.07C37.1428 6.37 38.3928 6.02 39.7728 6.02C40.9528 6.02 41.9828 6.26 42.8628 6.74C43.7628 7.22 44.4528 7.85 44.9328 8.63V6.26H50.0628V23H44.9328V20.63C44.4328 21.41 43.7328 22.04 42.8328 22.52C41.9528 23 40.9228 23.24 39.7428 23.24C38.3828 23.24 37.1428 22.89 36.0228 22.19C34.9028 21.47 34.0128 20.46 33.3528 19.16C32.7128 17.84 32.3928 16.32 32.3928 14.6ZM44.9328 14.63C44.9328 13.35 44.5728 12.34 43.8528 11.6C43.1528 10.86 42.2928 10.49 41.2728 10.49C40.2528 10.49 39.3828 10.86 38.6628 11.6C37.9628 12.32 37.6128 13.32 37.6128 14.6C37.6128 15.88 37.9628 16.9 38.6628 17.66C39.3828 18.4 40.2528 18.77 41.2728 18.77C42.2928 18.77 43.1528 18.4 43.8528 17.66C44.5728 16.92 44.9328 15.91 44.9328 14.63ZM58.9041 0.8V23H53.7741V0.8H58.9041ZM67.7518 0.8V23H62.6218V0.8H67.7518ZM87.2494 14.36C87.2494 14.84 87.2194 15.34 87.1594 15.86H75.5494C75.6294 16.9 75.9594 17.7 76.5394 18.26C77.1394 18.8 77.8694 19.07 78.7294 19.07C80.0094 19.07 80.8994 18.53 81.3994 17.45H86.8594C86.5794 18.55 86.0694 19.54 85.3294 20.42C84.6094 21.3 83.6994 21.99 82.5994 22.49C81.4994 22.99 80.2694 23.24 78.9094 23.24C77.2694 23.24 75.8094 22.89 74.5294 22.19C73.2494 21.49 72.2494 20.49 71.5294 19.19C70.8094 17.89 70.4494 16.37 70.4494 14.63C70.4494 12.89 70.7994 11.37 71.4994 10.07C72.2194 8.77 73.2194 7.77 74.4994 7.07C75.7794 6.37 77.2494 6.02 78.9094 6.02C80.5294 6.02 81.9694 6.36 83.2294 7.04C84.4894 7.72 85.4694 8.69 86.1694 9.95C86.8894 11.21 87.2494 12.68 87.2494 14.36ZM81.9994 13.01C81.9994 12.13 81.6994 11.43 81.0994 10.91C80.4994 10.39 79.7494 10.13 78.8494 10.13C77.9894 10.13 77.2594 10.38 76.6594 10.88C76.0794 11.38 75.7194 12.09 75.5794 13.01H81.9994ZM99.2858 18.65V23H96.6758C94.8158 23 93.3658 22.55 92.3258 21.65C91.2858 20.73 90.7658 19.24 90.7658 17.18V10.52H88.7258V6.26H90.7658V2.18H95.8958V6.26H99.2558V10.52H95.8958V17.24C95.8958 17.74 96.0158 18.1 96.2558 18.32C96.4958 18.54 96.8958 18.65 97.4558 18.65H99.2858Z" fill="black"/>
</svg>
